Newsreader6pt-ExtraLight.ufo
<glyph name="plus" format="2">
  <advance width="1140"/>
  <unicode hex="002B"/>
  <outline>
    <contour>
      <point x="537.0" y="923.0" type="line"/>
      <point x="537.0" y="101.0" type="line"/>
      <point x="603.0" y="101.0" type="line"/>
      <point x="603.0" y="923.0" type="line"/>
    </contour>
    <contour>
      <point x="981.0" y="545.0" type="line"/>
      <point x="159.0" y="545.0" type="line"/>
      <point x="159.0" y="479.0" type="line"/>
      <point x="981.0" y="479.0" type="line"/>
    </contour>
  </outline>
</glyph>
<glyph name="colon" format="2">
  <advance width="534"/>
  <unicode hex="003A"/>
  <outline>
    <contour>
      <point x="267.0" y="184.0" type="curve" smooth="yes"/>
      <point x="205.0" y="184.0"/>
      <point x="164.0" y="153.0"/>
      <point x="164.0" y="85.0" type="curve" smooth="yes"/>
      <point x="164.0" y="17.0"/>
      <point x="205.0" y="-14.0"/>
      <point x="267.0" y="-14.0" type="curve" smooth="yes"/>
      <point x="329.0" y="-14.0"/>
      <point x="370.0" y="17.0"/>
      <point x="370.0" y="85.0" type="curve" smooth="yes"/>
      <point x="370.0" y="153.0"/>
      <point x="329.0" y="184.0"/>
    </contour>
    <contour>
      <point x="267.0" y="1038.0" type="curve" smooth="yes"/>
      <point x="205.0" y="1038.0"/>
      <point x="164.0" y="1007.0"/>
      <point x="164.0" y="939.0" type="curve" smooth="yes"/>
      <point x="164.0" y="871.0"/>
      <point x="205.0" y="840.0"/>
      <point x="267.0" y="840.0" type="curve" smooth="yes"/>
      <point x="329.0" y="840.0"/>
      <point x="370.0" y="871.0"/>
      <point x="370.0" y="939.0" type="curve" smooth="yes"/>
      <point x="370.0" y="1007.0"/>
      <point x="329.0" y="1038.0"/>
    </contour>
  </outline>
</glyph>
<glyph name="F" format="2">
  <advance width="1312"/>
  <unicode hex="0046"/>
  <anchor x="705.0" y="1414" name="UCtop"/>
  <anchor x="365.0" y="0" name="bottom"/>
  <outline>
    <contour>
      <point x="962.0" y="938.0" type="line"/>
      <point x="912.0" y="938.0" type="line"/>
      <point x="881.0" y="718.0" type="line"/>
      <point x="390.0" y="718.0" type="line"/>
      <point x="390.0" y="650.0" type="line"/>
      <point x="881.0" y="650.0" type="line"/>
      <point x="912.0" y="427.0" type="line"/>
      <point x="962.0" y="427.0" type="line"/>
      <point x="962.0" y="682.0" type="line"/>
    </contour>
    <contour>
      <point x="1180.0" y="1484.0" type="line"/>
      <point x="1140.0" y="1414.0" type="line"/>
      <point x="335.0" y="1414.0" type="line"/>
      <point x="335.0" y="1346.0" type="line"/>
      <point x="1175.0" y="1346.0" type="line"/>
      <point x="1130.0" y="1402.0" type="line"/>
      <point x="1160.0" y="1068.0" type="line"/>
      <point x="1221.0" y="1068.0" type="line"/>
      <point x="1228.0" y="1484.0" type="line"/>
    </contour>
    <contour>
      <point x="405.0" y="1414.0" type="line"/>
      <point x="104.0" y="1414.0" type="line"/>
      <point x="104.0" y="1363.0" type="line"/>
      <point x="325.0" y="1347.0" type="line"/>
      <point x="325.0" y="67.0" type="line"/>
      <point x="104.0" y="51.0" type="line"/>
      <point x="104.0" y="0.0" type="line"/>
      <point x="626.0" y="0.0" type="line"/>
      <point x="626.0" y="51.0" type="line"/>
      <point x="405.0" y="67.0" type="line"/>
    </contour>
  </outline>
</glyph>
<glyph name="K" format="2">
  <advance width="1552"/>
  <unicode hex="004B"/>
  <anchor x="770.0" y="1414" name="UCtop"/>
  <anchor x="801.0" y="0" name="bottom"/>
  <outline>
    <contour>
      <point x="1314.0" y="67.0" type="line"/>
      <point x="662.0" y="785.0" type="line"/>
      <point x="666.0" y="728.0" type="line"/>
      <point x="1235.0" y="1347.0" type="line"/>
      <point x="1426.0" y="1363.0" type="line"/>
      <point x="1426.0" y="1414.0" type="line"/>
      <point x="956.0" y="1414.0" type="line"/>
      <point x="956.0" y="1363.0" type="line"/>
      <point x="1147.0" y="1347.0" type="line"/>
      <point x="635.0" y="779.0" type="line"/>
      <point x="395.0" y="779.0" type="line"/>
      <point x="395.0" y="711.0" type="line"/>
      <point x="625.0" y="711.0" type="line"/>
      <point x="1212.0" y="64.0" type="line"/>
      <point x="1001.0" y="51.0" type="line"/>
      <point x="1001.0" y="0.0" type="line"/>
      <point x="1520.0" y="0.0" type="line"/>
      <point x="1520.0" y="51.0" type="line"/>
    </contour>
    <contour>
      <point x="405.0" y="1347.0" type="line"/>
      <point x="626.0" y="1363.0" type="line"/>
      <point x="626.0" y="1414.0" type="line"/>
      <point x="104.0" y="1414.0" type="line"/>
      <point x="104.0" y="1363.0" type="line"/>
      <point x="325.0" y="1347.0" type="line"/>
      <point x="325.0" y="67.0" type="line"/>
      <point x="104.0" y="51.0" type="line"/>
      <point x="104.0" y="0.0" type="line"/>
      <point x="626.0" y="0.0" type="line"/>
      <point x="626.0" y="51.0" type="line"/>
      <point x="405.0" y="67.0" type="line"/>
    </contour>
  </outline>
</glyph>
<glyph name="backslash" format="2">
  <advance width="805"/>
  <unicode hex="005C"/>
  <outline>
    <contour>
      <point x="731.0" y="0.0" type="line"/>
      <point x="141.0" y="1414.0" type="line"/>
      <point x="71.0" y="1414.0" type="line"/>
      <point x="661.0" y="0.0" type="line"/>
    </contour>
  </outline>
</glyph>
<glyph name="z" format="2">
  <advance width="1067"/>
  <unicode hex="007A"/>
  <anchor x="562.0" y="1024" name="top"/>
  <anchor x="543.0" y="0" name="bottom"/>
  <outline>
    <contour>
      <point x="107.0" y="0.0" type="line"/>
      <point x="909.0" y="0.0" type="line"/>
      <point x="990.0" y="333.0" type="line"/>
      <point x="942.0" y="333.0" type="line"/>
      <point x="808.0" y="28.0" type="line"/>
      <point x="849.0" y="56.0" type="line"/>
      <point x="155.0" y="56.0" type="line"/>
      <point x="175.0" y="27.0" type="line"/>
      <point x="954.0" y="971.0" type="line"/>
      <point x="954.0" y="1024.0" type="line"/>
      <point x="233.0" y="1024.0" type="line"/>
      <point x="181.0" y="1044.0" type="line"/>
      <point x="141.0" y="1044.0" type="line"/>
      <point x="111.0" y="718.0" type="line"/>
      <point x="160.0" y="718.0" type="line"/>
      <point x="245.0" y="994.0" type="line"/>
      <point x="189.0" y="968.0" type="line"/>
      <point x="903.0" y="968.0" type="line"/>
      <point x="885.0" y="994.0" type="line"/>
      <point x="107.0" y="53.0" type="line"/>
    </contour>
  </outline>
</glyph>
<glyph name="braceright" format="2">
  <advance width="684"/>
  <unicode hex="007D"/>
  <outline>
    <contour>
      <point x="604.0" y="651.0" type="line"/>
      <point x="530.0" y="651.0" type="line" smooth="yes"/>
      <point x="423.0" y="651.0"/>
      <point x="370.0" y="707.0"/>
      <point x="370.0" y="800.0" type="curve" smooth="yes"/>
      <point x="370.0" y="969.0"/>
      <point x="423.0" y="1070.0"/>
      <point x="423.0" y="1191.0" type="curve" smooth="yes"/>
      <point x="423.0" y="1319.0"/>
      <point x="365.0" y="1460.0"/>
      <point x="158.0" y="1479.0" type="curve" smooth="yes"/>
      <point x="92.0" y="1485.0" type="line"/>
      <point x="85.0" y="1434.0" type="line"/>
      <point x="157.0" y="1426.0" type="line" smooth="yes"/>
      <point x="305.0" y="1410.0"/>
      <point x="343.0" y="1321.0"/>
      <point x="343.0" y="1207.0" type="curve" smooth="yes"/>
      <point x="343.0" y="1100.0"/>
      <point x="301.0" y="970.0"/>
      <point x="301.0" y="827.0" type="curve" smooth="yes"/>
      <point x="301.0" y="695.0"/>
      <point x="365.0" y="621.0"/>
      <point x="508.0" y="612.0" type="curve"/>
      <point x="508.0" y="632.0" type="line"/>
      <point x="365.0" y="623.0"/>
      <point x="301.0" y="549.0"/>
      <point x="301.0" y="417.0" type="curve" smooth="yes"/>
      <point x="301.0" y="274.0"/>
      <point x="343.0" y="144.0"/>
      <point x="343.0" y="37.0" type="curve" smooth="yes"/>
      <point x="343.0" y="-77.0"/>
      <point x="305.0" y="-166.0"/>
      <point x="157.0" y="-182.0" type="curve" smooth="yes"/>
      <point x="85.0" y="-190.0" type="line"/>
      <point x="92.0" y="-241.0" type="line"/>
      <point x="158.0" y="-235.0" type="line" smooth="yes"/>
      <point x="365.0" y="-216.0"/>
      <point x="423.0" y="-75.0"/>
      <point x="423.0" y="53.0" type="curve" smooth="yes"/>
      <point x="423.0" y="174.0"/>
      <point x="370.0" y="275.0"/>
      <point x="370.0" y="444.0" type="curve" smooth="yes"/>
      <point x="370.0" y="537.0"/>
      <point x="423.0" y="593.0"/>
      <point x="530.0" y="593.0" type="curve" smooth="yes"/>
      <point x="604.0" y="593.0" type="line"/>
    </contour>
  </outline>
</glyph>
<glyph name="degree" format="2">
  <advance width="829"/>
  <unicode hex="00B0"/>
  <outline>
    <contour>
      <point x="414.0" y="1434.0" type="curve" smooth="yes"/>
      <point x="242.0" y="1434.0"/>
      <point x="118.0" y="1313.0"/>
      <point x="118.0" y="1140.0" type="curve" smooth="yes"/>
      <point x="118.0" y="967.0"/>
      <point x="242.0" y="846.0"/>
      <point x="414.0" y="846.0" type="curve" smooth="yes"/>
      <point x="587.0" y="846.0"/>
      <point x="711.0" y="967.0"/>
      <point x="711.0" y="1140.0" type="curve" smooth="yes"/>
      <point x="711.0" y="1313.0"/>
      <point x="587.0" y="1434.0"/>
    </contour>
    <contour>
      <point x="414.0" y="905.0" type="curve" smooth="yes"/>
      <point x="280.0" y="905.0"/>
      <point x="183.0" y="999.0"/>
      <point x="183.0" y="1140.0" type="curve" smooth="yes"/>
      <point x="183.0" y="1281.0"/>
      <point x="280.0" y="1375.0"/>
      <point x="414.0" y="1375.0" type="curve" smooth="yes"/>
      <point x="549.0" y="1375.0"/>
      <point x="645.0" y="1281.0"/>
      <point x="645.0" y="1140.0" type="curve" smooth="yes"/>
      <point x="645.0" y="999.0"/>
      <point x="549.0" y="905.0"/>
    </contour>
  </outline>
</glyph>
<glyph name="Hbar" format="2">
  <advance width="1698"/>
  <unicode hex="0126"/>
  <outline>
    <contour>
      <point x="407.0" y="67.0" type="line"/>
      <point x="407.0" y="1347.0" type="line"/>
      <point x="628.0" y="1363.0" type="line"/>
      <point x="628.0" y="1414.0" type="line"/>
      <point x="106.0" y="1414.0" type="line"/>
      <point x="106.0" y="1363.0" type="line"/>
      <point x="327.0" y="1347.0" type="line"/>
      <point x="327.0" y="67.0" type="line"/>
      <point x="106.0" y="51.0" type="line"/>
      <point x="106.0" y="0.0" type="line"/>
      <point x="628.0" y="0.0" type="line"/>
      <point x="628.0" y="51.0" type="line"/>
    </contour>
    <contour>
      <point x="1371.0" y="67.0" type="line"/>
      <point x="1371.0" y="1347.0" type="line"/>
      <point x="1592.0" y="1363.0" type="line"/>
      <point x="1592.0" y="1414.0" type="line"/>
      <point x="1070.0" y="1414.0" type="line"/>
      <point x="1070.0" y="1363.0" type="line"/>
      <point x="1291.0" y="1347.0" type="line"/>
      <point x="1291.0" y="67.0" type="line"/>
      <point x="1070.0" y="51.0" type="line"/>
      <point x="1070.0" y="0.0" type="line"/>
      <point x="1592.0" y="0.0" type="line"/>
      <point x="1592.0" y="51.0" type="line"/>
    </contour>
    <contour>
      <point x="106.0" y="1027.0" type="line"/>
      <point x="1592.0" y="1027.0" type="line"/>
      <point x="1592.0" y="1094.0" type="line"/>
      <point x="106.0" y="1094.0" type="line"/>
    </contour>
    <contour>
      <point x="355.0" y="696.0" type="line"/>
      <point x="1343.0" y="696.0" type="line"/>
      <point x="1343.0" y="764.0" type="line"/>
      <point x="355.0" y="764.0" type="line"/>
    </contour>
  </outline>
</glyph>
<glyph name="uni0311" format="2">
  <unicode hex="0311"/>
  <anchor x="0" y="1024.0" name="_top"/>
  <anchor x="0" y="1464.0" name="top"/>
  <outline>
    <contour>
      <point x="0.0" y="1400.0" type="curve" smooth="yes"/>
      <point x="135.0" y="1400.0"/>
      <point x="195.0" y="1343.0"/>
      <point x="236.0" y="1138.0" type="curve"/>
      <point x="287.0" y="1138.0" type="line"/>
      <point x="240.0" y="1400.0"/>
      <point x="166.0" y="1474.0"/>
      <point x="0.0" y="1474.0" type="curve" smooth="yes"/>
      <point x="-166.0" y="1474.0"/>
      <point x="-240.0" y="1400.0"/>
      <point x="-287.0" y="1138.0" type="curve"/>
      <point x="-236.0" y="1138.0" type="line"/>
      <point x="-195.0" y="1343.0"/>
      <point x="-135.0" y="1400.0"/>
    </contour>
  </outline>
</glyph>
<glyph name="guilsinglleft" format="2">
  <advance width="649"/>
  <unicode hex="2039"/>
  <outline>
    <contour>
      <point x="169.0" y="543.0" type="line"/>
      <point x="169.0" y="501.0" type="line"/>
      <point x="524.0" y="891.0" type="line"/>
      <point x="488.0" y="928.0" type="line"/>
      <point x="106.0" y="555.0" type="line"/>
      <point x="106.0" y="489.0" type="line"/>
      <point x="488.0" y="116.0" type="line"/>
      <point x="524.0" y="153.0" type="line"/>
    </contour>
  </outline>
</glyph>
<glyph name="trademark" format="2">
  <advance width="1719"/>
  <unicode hex="2122"/>
  <outline>
    <contour>
      <point x="368.0" y="1411.0" type="line"/>
      <point x="368.0" y="890.0" type="line"/>
      <point x="278.0" y="883.0" type="line"/>
      <point x="278.0" y="847.0" type="line"/>
      <point x="520.0" y="847.0" type="line"/>
      <point x="520.0" y="883.0" type="line"/>
      <point x="430.0" y="890.0" type="line"/>
      <point x="430.0" y="1411.0" type="line"/>
    </contour>
    <contour>
      <point x="1478.0" y="890.0" type="line"/>
      <point x="1442.0" y="1370.0" type="line"/>
      <point x="1531.0" y="1378.0" type="line"/>
      <point x="1531.0" y="1414.0" type="line"/>
      <point x="1348.0" y="1414.0" type="line"/>
      <point x="1139.0" y="909.0" type="line"/>
      <point x="1159.0" y="909.0" type="line"/>
      <point x="945.0" y="1414.0" type="line"/>
      <point x="769.0" y="1414.0" type="line"/>
      <point x="769.0" y="1378.0" type="line"/>
      <point x="862.0" y="1368.0" type="line"/>
      <point x="831.0" y="890.0" type="line"/>
      <point x="741.0" y="883.0" type="line"/>
      <point x="741.0" y="847.0" type="line"/>
      <point x="968.0" y="847.0" type="line"/>
      <point x="968.0" y="883.0" type="line"/>
      <point x="878.0" y="890.0" type="line"/>
      <point x="909.0" y="1368.0" type="line"/>
      <point x="898.0" y="1367.0" type="line"/>
      <point x="1125.0" y="847.0" type="line"/>
      <point x="1159.0" y="847.0" type="line"/>
      <point x="1385.0" y="1377.0" type="line"/>
      <point x="1380.0" y="1378.0" type="line"/>
      <point x="1417.0" y="890.0" type="line"/>
      <point x="1327.0" y="883.0" type="line"/>
      <point x="1327.0" y="847.0" type="line"/>
      <point x="1568.0" y="847.0" type="line"/>
      <point x="1568.0" y="883.0" type="line"/>
    </contour>
    <contour>
      <point x="632.0" y="1371.0" type="line"/>
      <point x="609.0" y="1396.0" type="line"/>
      <point x="642.0" y="1235.0" type="line"/>
      <point x="684.0" y="1235.0" type="line"/>
      <point x="656.0" y="1444.0" type="line"/>
      <point x="614.0" y="1444.0" type="line"/>
      <point x="611.0" y="1407.0" type="line"/>
      <point x="639.0" y="1414.0" type="line"/>
      <point x="167.0" y="1414.0" type="line"/>
      <point x="187.0" y="1407.0" type="line"/>
      <point x="183.0" y="1444.0" type="line"/>
      <point x="142.0" y="1444.0" type="line"/>
      <point x="114.0" y="1235.0" type="line"/>
      <point x="155.0" y="1235.0" type="line"/>
      <point x="188.0" y="1396.0" type="line"/>
      <point x="166.0" y="1371.0" type="line"/>
    </contour>
  </outline>
</glyph>
<glyph name="minus" format="2">
  <advance width="1140"/>
  <unicode hex="2212"/>
  <outline>
    <contour>
      <point x="159.0" y="545.0" type="line"/>
      <point x="159.0" y="479.0" type="line"/>
      <point x="981.0" y="479.0" type="line"/>
      <point x="981.0" y="545.0" type="line"/>
    </contour>
  </outline>
</glyph>
<glyph name="fi" format="2">
  <advance width="1256"/>
  <unicode hex="FB01"/>
  <outline>
    <contour>
      <point x="975.0" y="958.0" type="line"/>
      <point x="936.0" y="988.0" type="line"/>
      <point x="936.0" y="64.0" type="line"/>
      <point x="769.0" y="48.0" type="line"/>
      <point x="769.0" y="0.0" type="line"/>
      <point x="1178.0" y="0.0" type="line"/>
      <point x="1178.0" y="48.0" type="line"/>
      <point x="1011.0" y="64.0" type="line"/>
      <point x="1011.0" y="938.0" type="line"/>
      <point x="1020.0" y="1044.0" type="line"/>
      <point x="1003.0" y="1044.0" type="line"/>
      <point x="860.0" y="1024.0" type="line"/>
      <point x="336.0" y="1024.0" type="line"/>
      <point x="292.0" y="1028.0" type="line"/>
      <point x="49.0" y="1005.0" type="line"/>
      <point x="49.0" y="972.0" type="line"/>
      <point x="278.0" y="953.0" type="line"/>
      <point x="336.0" y="958.0" type="line"/>
    </contour>
    <contour>
      <point x="370.0" y="64.0" type="line"/>
      <point x="370.0" y="1136.0" type="line" smooth="yes"/>
      <point x="370.0" y="1339.0"/>
      <point x="457.0" y="1425.0"/>
      <point x="698.0" y="1425.0" type="curve" smooth="yes"/>
      <point x="871.0" y="1425.0"/>
      <point x="930.0" y="1288.0"/>
      <point x="952.0" y="1288.0" type="curve" smooth="yes"/>
      <point x="997.0" y="1288.0"/>
      <point x="1026.0" y="1311.0"/>
      <point x="1026.0" y="1360.0" type="curve" smooth="yes"/>
      <point x="1026.0" y="1426.0"/>
      <point x="943.0" y="1484.0"/>
      <point x="706.0" y="1484.0" type="curve" smooth="yes"/>
      <point x="450.0" y="1484.0"/>
      <point x="295.0" y="1376.0"/>
      <point x="295.0" y="1122.0" type="curve" smooth="yes"/>
      <point x="295.0" y="64.0" type="line"/>
      <point x="128.0" y="48.0" type="line"/>
      <point x="128.0" y="0.0" type="line"/>
      <point x="537.0" y="0.0" type="line"/>
      <point x="537.0" y="48.0" type="line"/>
    </contour>
  </outline>
</glyph>
<glyph name="caroncomb.alt" format="2">
  <anchor x="0" y="1464.0" name="_right"/>
  <outline>
    <contour>
      <point x="176.0" y="1079.0" type="line"/>
      <point x="209.0" y="1079.0" type="line"/>
      <point x="354.0" y="1444.0" type="line"/>
      <point x="354.0" y="1464.0" type="line"/>
      <point x="242.0" y="1464.0" type="line"/>
    </contour>
  </outline>
</glyph>
<glyph name="cent.lf" format="2">
  <advance width="1140"/>
  <outline>
    <contour>
      <point x="343.0" y="0.0" type="line"/>
      <point x="415.0" y="0.0" type="line"/>
      <point x="894.0" y="1414.0" type="line"/>
      <point x="822.0" y="1414.0" type="line"/>
    </contour>
    <contour>
      <point x="682.0" y="1239.0" type="curve" smooth="yes"/>
      <point x="315.0" y="1239.0"/>
      <point x="133.0" y="1017.0"/>
      <point x="133.0" y="703.0" type="curve" smooth="yes"/>
      <point x="133.0" y="339.0"/>
      <point x="301.0" y="175.0"/>
      <point x="610.0" y="175.0" type="curve" smooth="yes"/>
      <point x="763.0" y="175.0"/>
      <point x="858.0" y="197.0"/>
      <point x="1015.0" y="281.0" type="curve"/>
      <point x="1015.0" y="337.0" type="line"/>
      <point x="879.0" y="269.0"/>
      <point x="778.0" y="246.0"/>
      <point x="640.0" y="246.0" type="curve" smooth="yes"/>
      <point x="349.0" y="246.0"/>
      <point x="211.0" y="379.0"/>
      <point x="211.0" y="706.0" type="curve" smooth="yes"/>
      <point x="211.0" y="1028.0"/>
      <point x="393.0" y="1175.0"/>
      <point x="666.0" y="1175.0" type="curve" smooth="yes"/>
      <point x="842.0" y="1175.0"/>
      <point x="922.0" y="1036.0"/>
      <point x="934.0" y="1036.0" type="curve" smooth="yes"/>
      <point x="972.0" y="1036.0"/>
      <point x="1009.0" y="1065.0"/>
      <point x="1009.0" y="1111.0" type="curve" smooth="yes"/>
      <point x="1009.0" y="1159.0"/>
      <point x="943.0" y="1239.0"/>
    </contour>
  </outline>
</glyph>
<glyph name="uni0302_tildecomb.case" format="2">
  <anchor x="0" y="1414.0" name="_UCtop"/>
  <outline>
    <contour>
      <point x="10.0" y="1696.0" type="line"/>
      <point x="-11.0" y="1696.0" type="line"/>
      <point x="202.0" y="1503.0" type="line"/>
      <point x="267.0" y="1503.0" type="line"/>
      <point x="42.0" y="1748.0" type="line"/>
      <point x="-41.0" y="1748.0" type="line"/>
      <point x="-267.0" y="1503.0" type="line"/>
      <point x="-202.0" y="1503.0" type="line"/>
    </contour>
    <contour>
      <point x="-212.0" y="1796.0" type="line"/>
      <point x="-191.0" y="1914.0"/>
      <point x="-172.0" y="1937.0"/>
      <point x="-129.0" y="1937.0" type="curve" smooth="yes"/>
      <point x="-57.0" y="1937.0"/>
      <point x="26.0" y="1791.0"/>
      <point x="120.0" y="1791.0" type="curve" smooth="yes"/>
      <point x="187.0" y="1791.0"/>
      <point x="229.0" y="1828.0"/>
      <point x="261.0" y="2004.0" type="curve"/>
      <point x="212.0" y="2004.0" type="line"/>
      <point x="191.0" y="1886.0"/>
      <point x="172.0" y="1863.0"/>
      <point x="129.0" y="1863.0" type="curve" smooth="yes"/>
      <point x="57.0" y="1863.0"/>
      <point x="-26.0" y="2009.0"/>
      <point x="-120.0" y="2009.0" type="curve" smooth="yes"/>
      <point x="-187.0" y="2009.0"/>
      <point x="-229.0" y="1972.0"/>
      <point x="-261.0" y="1796.0" type="curve"/>
    </contour>
  </outline>
</glyph>
<glyph name="uni0306_acutecomb.case" format="2">
  <anchor x="0" y="1414.0" name="_UCtop"/>
  <outline>
    <contour>
      <point x="-28.0" y="1721.0" type="line"/>
      <point x="20.0" y="1721.0" type="line"/>
      <point x="270.0" y="1988.0" type="line"/>
      <point x="270.0" y="2004.0" type="line"/>
      <point x="155.0" y="2004.0" type="line"/>
    </contour>
    <contour>
      <point x="0.0" y="1583.0" type="curve" smooth="yes"/>
      <point x="-129.0" y="1583.0"/>
      <point x="-191.0" y="1658.0"/>
      <point x="-214.0" y="1752.0" type="curve"/>
      <point x="-260.0" y="1752.0" type="line"/>
      <point x="-226.0" y="1574.0"/>
      <point x="-148.0" y="1511.0"/>
      <point x="0.0" y="1511.0" type="curve" smooth="yes"/>
      <point x="148.0" y="1511.0"/>
      <point x="226.0" y="1574.0"/>
      <point x="260.0" y="1752.0" type="curve"/>
      <point x="214.0" y="1752.0" type="line"/>
      <point x="191.0" y="1658.0"/>
      <point x="129.0" y="1583.0"/>
    </contour>
  </outline>
</glyph>
<glyph name="uni0307.case" format="2">
  <anchor x="0" y="1414.0" name="_UCtop"/>
  <anchor x="0" y="1870.0" name="UCtop"/>
  <anchor x="0" y="1707.0" name="_mid"/>
  <outline>
    <contour>
      <point x="0.0" y="1621.0" type="curve" smooth="yes"/>
      <point x="53.0" y="1621.0"/>
      <point x="88.0" y="1651.0"/>
      <point x="88.0" y="1709.0" type="curve" smooth="yes"/>
      <point x="88.0" y="1767.0"/>
      <point x="53.0" y="1793.0"/>
      <point x="0.0" y="1793.0" type="curve" smooth="yes"/>
      <point x="-53.0" y="1793.0"/>
      <point x="-88.0" y="1767.0"/>
      <point x="-88.0" y="1709.0" type="curve" smooth="yes"/>
      <point x="-88.0" y="1651.0"/>
      <point x="-53.0" y="1621.0"/>
    </contour>
  </outline>
</glyph>
<glyph name="uni030C.case" format="2">
  <anchor x="0" y="1414.0" name="_UCtop"/>
  <anchor x="0" y="1870.0" name="UCtop"/>
  <outline>
    <contour>
      <point x="14.0" y="1599.0" type="line"/>
      <point x="-232.0" y="1870.0" type="line"/>
      <point x="-297.0" y="1870.0" type="line"/>
      <point x="-37.0" y="1544.0" type="line"/>
      <point x="38.0" y="1544.0" type="line"/>
      <point x="297.0" y="1870.0" type="line"/>
      <point x="232.0" y="1870.0" type="line"/>
      <point x="-15.0" y="1599.0" type="line"/>
    </contour>
  </outline>
</glyph>
<glyph name="uni20A6.lf.1" format="2">
  <advance width="1448"/>
  <outline>
    <contour>
      <point x="1087.0" y="55.0" type="line"/>
      <point x="453.0" y="1414.0" type="line"/>
      <point x="175.0" y="1414.0" type="line"/>
      <point x="175.0" y="1363.0" type="line"/>
      <point x="339.0" y="1347.0" type="line"/>
      <point x="339.0" y="67.0" type="line"/>
      <point x="175.0" y="51.0" type="line"/>
      <point x="175.0" y="0.0" type="line"/>
      <point x="570.0" y="0.0" type="line"/>
      <point x="570.0" y="51.0" type="line"/>
      <point x="408.0" y="67.0" type="line"/>
      <point x="408.0" y="1352.0" type="line"/>
      <point x="401.0" y="1346.0" type="line"/>
      <point x="1043.0" y="-20.0" type="line"/>
      <point x="1135.0" y="-20.0" type="line"/>
      <point x="1135.0" y="1347.0" type="line"/>
      <point x="1299.0" y="1363.0" type="line"/>
      <point x="1299.0" y="1414.0" type="line"/>
      <point x="904.0" y="1414.0" type="line"/>
      <point x="904.0" y="1363.0" type="line"/>
      <point x="1066.0" y="1347.0" type="line"/>
      <point x="1066.0" y="55.0" type="line"/>
    </contour>
    <contour>
      <point x="1096.0" y="514.0" type="line"/>
      <point x="1319.0" y="514.0" type="line"/>
      <point x="1319.0" y="580.0" type="line"/>
      <point x="1096.0" y="580.0" type="line"/>
    </contour>
    <contour>
      <point x="378.0" y="580.0" type="line"/>
      <point x="144.0" y="580.0" type="line"/>
      <point x="144.0" y="514.0" type="line"/>
      <point x="378.0" y="514.0" type="line"/>
    </contour>
    <contour>
      <point x="1096.0" y="834.0" type="line"/>
      <point x="1319.0" y="834.0" type="line"/>
      <point x="1319.0" y="900.0" type="line"/>
      <point x="1096.0" y="900.0" type="line"/>
    </contour>
    <contour>
      <point x="378.0" y="900.0" type="line"/>
      <point x="144.0" y="900.0" type="line"/>
      <point x="144.0" y="834.0" type="line"/>
      <point x="378.0" y="834.0" type="line"/>
    </contour>
  </outline>
</glyph>
<glyph name="uni20B9.lf" format="2">
  <advance width="1294"/>
  <outline>
    <contour>
      <point x="1166.0" y="1094.0" type="line"/>
      <point x="132.0" y="1094.0" type="line"/>
      <point x="132.0" y="1028.0" type="line"/>
      <point x="1166.0" y="1028.0" type="line"/>
    </contour>
    <contour>
      <point x="611.0" y="674.0" type="line" smooth="yes"/>
      <point x="741.0" y="674.0"/>
      <point x="773.0" y="640.0"/>
      <point x="811.0" y="498.0" type="curve" smooth="yes"/>
      <point x="898.0" y="171.0" type="line" smooth="yes"/>
      <point x="942.0" y="5.0"/>
      <point x="969.0" y="-13.0"/>
      <point x="1166.0" y="0.0" type="curve"/>
      <point x="1166.0" y="58.0" type="line"/>
      <point x="1022.0" y="48.0"/>
      <point x="1005.0" y="66.0"/>
      <point x="975.0" y="177.0" type="curve" smooth="yes"/>
      <point x="882.0" y="517.0" type="line" smooth="yes"/>
      <point x="843.0" y="660.0"/>
      <point x="809.0" y="712.0"/>
      <point x="641.0" y="716.0" type="curve"/>
      <point x="641.0" y="706.0" type="line"/>
      <point x="854.0" y="747.0"/>
      <point x="929.0" y="883.0"/>
      <point x="929.0" y="1057.0" type="curve" smooth="yes"/>
      <point x="929.0" y="1264.0"/>
      <point x="812.0" y="1386.0"/>
      <point x="429.0" y="1386.0" type="curve" smooth="yes"/>
      <point x="325.0" y="1386.0" type="line"/>
      <point x="325.0" y="1414.0" type="line"/>
      <point x="159.0" y="1414.0" type="line"/>
      <point x="159.0" y="1348.0" type="line"/>
      <point x="409.0" y="1348.0" type="line" smooth="yes"/>
      <point x="775.0" y="1348.0"/>
      <point x="851.0" y="1245.0"/>
      <point x="851.0" y="1053.0" type="curve" smooth="yes"/>
      <point x="851.0" y="834.0"/>
      <point x="733.0" y="740.0"/>
      <point x="520.0" y="740.0" type="curve" smooth="yes"/>
      <point x="132.0" y="740.0" type="line"/>
      <point x="132.0" y="674.0" type="line"/>
    </contour>
    <contour>
      <point x="1166.0" y="1414.0" type="line"/>
      <point x="132.0" y="1414.0" type="line"/>
      <point x="132.0" y="1348.0" type="line"/>
      <point x="1166.0" y="1348.0" type="line"/>
    </contour>
  </outline>
</glyph>
